<?xml version="1.0" standalone="no"?>
<!DOCTYPE svg PUBLIC "-//W3C//DTD SVG 20010904//EN"
 "http://www.w3.org/TR/2001/REC-SVG-20010904/DTD/svg10.dtd">
<svg version="1.0" xmlns="http://www.w3.org/2000/svg"
 width="1024.000000pt" height="1024.000000pt" viewBox="0 0 1024.000000 1024.000000"
 preserveAspectRatio="xMidYMid meet">

<g transform="translate(0.000000,1024.000000) scale(0.100000,-0.100000)"
fill="#000000" stroke="none">
<path d="M3247 6986 c-76 -28 -117 -88 -117 -171 0 -59 10 -78 117 -216 49
-63 198 -262 333 -443 332 -446 828 -1108 926 -1236 44 -58 91 -130 104 -160
l25 -55 5 -740 c5 -813 2 -765 67 -827 58 -55 76 -58 398 -58 244 0 302 3 333
15 47 20 78 50 105 100 22 40 22 46 27 775 l5 735 26 55 c26 55 249 361 483
665 68 88 177 232 242 320 66 88 178 239 251 335 223 296 437 583 466 626 57
84 56 160 -4 228 -57 65 -73 67 -469 64 -391 -3 -378 -1 -455 -69 -19 -17
-101 -124 -182 -237 -81 -114 -220 -308 -309 -432 -89 -124 -239 -333 -333
-465 -95 -132 -176 -241 -180 -243 -5 -2 -69 82 -144 185 -74 103 -196 274
-271 378 -76 105 -230 320 -344 480 -221 308 -255 349 -317 380 -37 19 -65 20
-395 22 -282 2 -363 0 -393 -11z"/>
<path d="M6546 5350 c-76 -24 -153 -106 -175 -185 -6 -23 -11 -127 -11 -247 0
-243 10 -285 82 -355 55 -52 97 -73 163 -80 81 -8 148 18 215 86 85 85 93 119
88 378 -3 195 -5 211 -27 253 -30 58 -76 107 -126 132 -45 24 -161 34 -209 18z"/>
<path d="M3496 5229 c-23 -18 -27 -28 -24 -63 3 -37 8 -44 52 -73 80 -52 154
-132 189 -203 30 -62 32 -71 32 -180 0 -105 -3 -120 -28 -172 -33 -67 -112
-157 -165 -189 -64 -38 -82 -60 -82 -96 0 -38 37 -83 67 -83 40 0 147 62 209
122 152 146 213 338 171 540 -36 172 -159 330 -309 398 -55 25 -79 25 -112 -1z"/>
<path d="M3295 4931 c-144 -35 -214 -182 -151 -316 67 -144 236 -180 351 -74
56 51 77 98 78 168 0 99 -65 189 -157 216 -53 16 -74 17 -121 6z"/>
<path d="M6100 4810 c-22 -22 -23 -27 -20 -125 3 -96 31 -179 89 -261 79 -114
193 -195 319 -230 l62 -17 0 -84 0 -83 -65 0 c-35 0 -75 -5 -89 -11 -50 -23
-57 -103 -13 -134 17 -12 65 -15 250 -15 l228 0 24 25 c33 33 32 70 -4 106
-27 27 -35 29 -100 29 l-71 0 0 85 c0 84 0 85 28 91 244 54 414 234 443 468
16 129 -5 176 -80 176 -46 0 -71 -39 -71 -111 0 -153 -119 -306 -279 -360 -93
-31 -207 -23 -296 20 -121 60 -199 174 -221 325 -8 53 -20 96 -30 107 -23 25
-78 25 -104 -1z"/>
</g>
</svg>
